<mxfile host="app.diagrams.net" agent="Mozilla/5.0 (Windows NT 10.0; Win64; x64) AppleWebKit/537.36 (KHTML, like Gecko) Chrome/133.0.0.0 Safari/537.36" version="26.1.0">
  <diagram name="Page-1" id="uciz5H9t3gmS43EUbt9e">
    <mxGraphModel dx="1707" dy="1603" grid="1" gridSize="10" guides="1" tooltips="1" connect="1" arrows="1" fold="1" page="1" pageScale="1" pageWidth="827" pageHeight="1169" math="0" shadow="0">
      <root>
        <mxCell id="0" />
        <mxCell id="1" parent="0" />
        <mxCell id="RlAwL48p8lJ9-qkZBHk4-1" value="Musicana" style="whiteSpace=wrap;html=1;align=center;" vertex="1" parent="1">
          <mxGeometry x="80" y="80" width="100" height="40" as="geometry" />
        </mxCell>
        <mxCell id="RlAwL48p8lJ9-qkZBHk4-2" value="ID" style="ellipse;whiteSpace=wrap;html=1;align=center;fontStyle=4;" vertex="1" parent="1">
          <mxGeometry x="120" y="-20" width="70" height="40" as="geometry" />
        </mxCell>
        <mxCell id="RlAwL48p8lJ9-qkZBHk4-3" value="" style="endArrow=none;html=1;rounded=0;exitX=0.75;exitY=0;exitDx=0;exitDy=0;entryX=0.5;entryY=1;entryDx=0;entryDy=0;" edge="1" parent="1" source="RlAwL48p8lJ9-qkZBHk4-1" target="RlAwL48p8lJ9-qkZBHk4-2">
          <mxGeometry relative="1" as="geometry">
            <mxPoint x="330" y="150" as="sourcePoint" />
            <mxPoint x="490" y="150" as="targetPoint" />
          </mxGeometry>
        </mxCell>
        <mxCell id="RlAwL48p8lJ9-qkZBHk4-4" value="Name" style="ellipse;whiteSpace=wrap;html=1;align=center;" vertex="1" parent="1">
          <mxGeometry y="-10" width="70" height="40" as="geometry" />
        </mxCell>
        <mxCell id="RlAwL48p8lJ9-qkZBHk4-5" value="" style="endArrow=none;html=1;rounded=0;exitX=1;exitY=1;exitDx=0;exitDy=0;entryX=0;entryY=0;entryDx=0;entryDy=0;" edge="1" parent="1" source="RlAwL48p8lJ9-qkZBHk4-4" target="RlAwL48p8lJ9-qkZBHk4-1">
          <mxGeometry relative="1" as="geometry">
            <mxPoint x="280" y="130" as="sourcePoint" />
            <mxPoint x="440" y="130" as="targetPoint" />
          </mxGeometry>
        </mxCell>
        <mxCell id="RlAwL48p8lJ9-qkZBHk4-6" value="Address" style="ellipse;whiteSpace=wrap;html=1;align=center;" vertex="1" parent="1">
          <mxGeometry x="-50" y="70" width="80" height="40" as="geometry" />
        </mxCell>
        <mxCell id="RlAwL48p8lJ9-qkZBHk4-7" value="" style="endArrow=none;html=1;rounded=0;exitX=1;exitY=0.5;exitDx=0;exitDy=0;entryX=0;entryY=0.5;entryDx=0;entryDy=0;" edge="1" parent="1" source="RlAwL48p8lJ9-qkZBHk4-6" target="RlAwL48p8lJ9-qkZBHk4-1">
          <mxGeometry relative="1" as="geometry">
            <mxPoint x="260" y="160" as="sourcePoint" />
            <mxPoint x="420" y="160" as="targetPoint" />
          </mxGeometry>
        </mxCell>
        <mxCell id="RlAwL48p8lJ9-qkZBHk4-8" value="City" style="ellipse;whiteSpace=wrap;html=1;align=center;" vertex="1" parent="1">
          <mxGeometry x="-160" y="30" width="90" height="40" as="geometry" />
        </mxCell>
        <mxCell id="RlAwL48p8lJ9-qkZBHk4-9" value="" style="endArrow=none;html=1;rounded=0;entryX=0;entryY=0;entryDx=0;entryDy=0;exitX=1;exitY=0.5;exitDx=0;exitDy=0;" edge="1" parent="1" source="RlAwL48p8lJ9-qkZBHk4-8" target="RlAwL48p8lJ9-qkZBHk4-6">
          <mxGeometry relative="1" as="geometry">
            <mxPoint x="120" y="160" as="sourcePoint" />
            <mxPoint x="280" y="160" as="targetPoint" />
          </mxGeometry>
        </mxCell>
        <mxCell id="RlAwL48p8lJ9-qkZBHk4-10" value="Street" style="ellipse;whiteSpace=wrap;html=1;align=center;" vertex="1" parent="1">
          <mxGeometry x="-160" y="90" width="80" height="40" as="geometry" />
        </mxCell>
        <mxCell id="RlAwL48p8lJ9-qkZBHk4-11" value="" style="endArrow=none;html=1;rounded=0;exitX=1;exitY=0.5;exitDx=0;exitDy=0;entryX=0;entryY=1;entryDx=0;entryDy=0;" edge="1" parent="1" source="RlAwL48p8lJ9-qkZBHk4-10" target="RlAwL48p8lJ9-qkZBHk4-6">
          <mxGeometry relative="1" as="geometry">
            <mxPoint x="120" y="160" as="sourcePoint" />
            <mxPoint x="280" y="160" as="targetPoint" />
          </mxGeometry>
        </mxCell>
        <mxCell id="RlAwL48p8lJ9-qkZBHk4-12" value="Phone_Number" style="ellipse;whiteSpace=wrap;html=1;align=center;" vertex="1" parent="1">
          <mxGeometry x="-80" y="150" width="100" height="40" as="geometry" />
        </mxCell>
        <mxCell id="RlAwL48p8lJ9-qkZBHk4-13" value="" style="endArrow=none;html=1;rounded=0;exitX=0.97;exitY=0.325;exitDx=0;exitDy=0;entryX=0;entryY=1;entryDx=0;entryDy=0;exitPerimeter=0;" edge="1" parent="1" source="RlAwL48p8lJ9-qkZBHk4-12" target="RlAwL48p8lJ9-qkZBHk4-1">
          <mxGeometry relative="1" as="geometry">
            <mxPoint x="70" y="170" as="sourcePoint" />
            <mxPoint x="230" y="170" as="targetPoint" />
          </mxGeometry>
        </mxCell>
        <mxCell id="RlAwL48p8lJ9-qkZBHk4-14" value="Instrument" style="whiteSpace=wrap;html=1;align=center;" vertex="1" parent="1">
          <mxGeometry x="500" y="80" width="100" height="40" as="geometry" />
        </mxCell>
        <mxCell id="RlAwL48p8lJ9-qkZBHk4-15" value="Name" style="ellipse;whiteSpace=wrap;html=1;align=center;fontStyle=4;" vertex="1" parent="1">
          <mxGeometry x="600" width="70" height="30" as="geometry" />
        </mxCell>
        <mxCell id="RlAwL48p8lJ9-qkZBHk4-16" value="" style="endArrow=none;html=1;rounded=0;entryX=0;entryY=1;entryDx=0;entryDy=0;exitX=0.75;exitY=0;exitDx=0;exitDy=0;" edge="1" parent="1" source="RlAwL48p8lJ9-qkZBHk4-14" target="RlAwL48p8lJ9-qkZBHk4-15">
          <mxGeometry relative="1" as="geometry">
            <mxPoint x="260" y="170" as="sourcePoint" />
            <mxPoint x="420" y="170" as="targetPoint" />
          </mxGeometry>
        </mxCell>
        <mxCell id="RlAwL48p8lJ9-qkZBHk4-17" value="Key" style="ellipse;whiteSpace=wrap;html=1;align=center;" vertex="1" parent="1">
          <mxGeometry x="470" y="-20" width="80" height="40" as="geometry" />
        </mxCell>
        <mxCell id="RlAwL48p8lJ9-qkZBHk4-18" value="" style="endArrow=none;html=1;rounded=0;entryX=0.6;entryY=1;entryDx=0;entryDy=0;entryPerimeter=0;exitX=0.25;exitY=0;exitDx=0;exitDy=0;" edge="1" parent="1" source="RlAwL48p8lJ9-qkZBHk4-14" target="RlAwL48p8lJ9-qkZBHk4-17">
          <mxGeometry relative="1" as="geometry">
            <mxPoint x="260" y="170" as="sourcePoint" />
            <mxPoint x="420" y="170" as="targetPoint" />
          </mxGeometry>
        </mxCell>
        <mxCell id="RlAwL48p8lJ9-qkZBHk4-19" value="Album" style="whiteSpace=wrap;html=1;align=center;" vertex="1" parent="1">
          <mxGeometry x="81" y="402" width="100" height="40" as="geometry" />
        </mxCell>
        <mxCell id="RlAwL48p8lJ9-qkZBHk4-20" value="title" style="ellipse;whiteSpace=wrap;html=1;align=center;" vertex="1" parent="1">
          <mxGeometry x="-90" y="402" width="70" height="40" as="geometry" />
        </mxCell>
        <mxCell id="RlAwL48p8lJ9-qkZBHk4-21" value="" style="endArrow=none;html=1;rounded=0;exitX=1;exitY=0.5;exitDx=0;exitDy=0;" edge="1" parent="1" target="RlAwL48p8lJ9-qkZBHk4-19">
          <mxGeometry relative="1" as="geometry">
            <mxPoint x="-19" y="422" as="sourcePoint" />
            <mxPoint x="301" y="432" as="targetPoint" />
          </mxGeometry>
        </mxCell>
        <mxCell id="RlAwL48p8lJ9-qkZBHk4-22" value="Copy_Right_Date" style="ellipse;whiteSpace=wrap;html=1;align=center;" vertex="1" parent="1">
          <mxGeometry x="-69" y="477" width="100" height="40" as="geometry" />
        </mxCell>
        <mxCell id="RlAwL48p8lJ9-qkZBHk4-23" value="" style="endArrow=none;html=1;rounded=0;entryX=0;entryY=1;entryDx=0;entryDy=0;" edge="1" parent="1" source="RlAwL48p8lJ9-qkZBHk4-22" target="RlAwL48p8lJ9-qkZBHk4-19">
          <mxGeometry relative="1" as="geometry">
            <mxPoint x="141" y="432" as="sourcePoint" />
            <mxPoint x="301" y="432" as="targetPoint" />
          </mxGeometry>
        </mxCell>
        <mxCell id="RlAwL48p8lJ9-qkZBHk4-25" value="ID" style="ellipse;whiteSpace=wrap;html=1;align=center;fontStyle=4;" vertex="1" parent="1">
          <mxGeometry x="-39" y="332" width="60" height="40" as="geometry" />
        </mxCell>
        <mxCell id="RlAwL48p8lJ9-qkZBHk4-26" value="" style="endArrow=none;html=1;rounded=0;exitX=1;exitY=1;exitDx=0;exitDy=0;entryX=0;entryY=0;entryDx=0;entryDy=0;" edge="1" parent="1" source="RlAwL48p8lJ9-qkZBHk4-25" target="RlAwL48p8lJ9-qkZBHk4-19">
          <mxGeometry relative="1" as="geometry">
            <mxPoint x="141" y="432" as="sourcePoint" />
            <mxPoint x="301" y="432" as="targetPoint" />
          </mxGeometry>
        </mxCell>
        <mxCell id="RlAwL48p8lJ9-qkZBHk4-27" value="Songs" style="whiteSpace=wrap;html=1;align=center;" vertex="1" parent="1">
          <mxGeometry x="511" y="401" width="100" height="40" as="geometry" />
        </mxCell>
        <mxCell id="RlAwL48p8lJ9-qkZBHk4-28" value="Title" style="ellipse;whiteSpace=wrap;html=1;align=center;fontStyle=4;" vertex="1" parent="1">
          <mxGeometry x="451" y="506" width="70" height="40" as="geometry" />
        </mxCell>
        <mxCell id="RlAwL48p8lJ9-qkZBHk4-29" value="" style="endArrow=none;html=1;rounded=0;entryX=0;entryY=1;entryDx=0;entryDy=0;exitX=0.5;exitY=0;exitDx=0;exitDy=0;" edge="1" parent="1" source="RlAwL48p8lJ9-qkZBHk4-28" target="RlAwL48p8lJ9-qkZBHk4-27">
          <mxGeometry relative="1" as="geometry">
            <mxPoint x="221" y="391" as="sourcePoint" />
            <mxPoint x="381" y="391" as="targetPoint" />
          </mxGeometry>
        </mxCell>
        <mxCell id="RlAwL48p8lJ9-qkZBHk4-30" value="Author" style="ellipse;whiteSpace=wrap;html=1;align=center;" vertex="1" parent="1">
          <mxGeometry x="351" y="466" width="70" height="40" as="geometry" />
        </mxCell>
        <mxCell id="RlAwL48p8lJ9-qkZBHk4-31" value="" style="endArrow=none;html=1;rounded=0;entryX=0;entryY=0.5;entryDx=0;entryDy=0;exitX=1;exitY=0;exitDx=0;exitDy=0;" edge="1" parent="1" source="RlAwL48p8lJ9-qkZBHk4-30" target="RlAwL48p8lJ9-qkZBHk4-27">
          <mxGeometry relative="1" as="geometry">
            <mxPoint x="221" y="391" as="sourcePoint" />
            <mxPoint x="381" y="391" as="targetPoint" />
          </mxGeometry>
        </mxCell>
        <mxCell id="RlAwL48p8lJ9-qkZBHk4-33" value="Plays" style="shape=rhombus;perimeter=rhombusPerimeter;whiteSpace=wrap;html=1;align=center;" vertex="1" parent="1">
          <mxGeometry x="290" y="75" width="90" height="50" as="geometry" />
        </mxCell>
        <mxCell id="RlAwL48p8lJ9-qkZBHk4-35" value="M" style="text;strokeColor=none;align=center;fillColor=none;html=1;verticalAlign=middle;whiteSpace=wrap;rounded=0;" vertex="1" parent="1">
          <mxGeometry x="440" y="110" width="30" height="20" as="geometry" />
        </mxCell>
        <mxCell id="RlAwL48p8lJ9-qkZBHk4-37" value="" style="endArrow=none;html=1;rounded=0;entryX=0;entryY=0.5;entryDx=0;entryDy=0;" edge="1" parent="1" source="RlAwL48p8lJ9-qkZBHk4-33" target="RlAwL48p8lJ9-qkZBHk4-14">
          <mxGeometry relative="1" as="geometry">
            <mxPoint x="260" y="220" as="sourcePoint" />
            <mxPoint x="420" y="220" as="targetPoint" />
          </mxGeometry>
        </mxCell>
        <mxCell id="RlAwL48p8lJ9-qkZBHk4-38" value="" style="endArrow=none;html=1;rounded=0;exitX=1;exitY=0.5;exitDx=0;exitDy=0;entryX=0;entryY=0.5;entryDx=0;entryDy=0;" edge="1" parent="1" source="RlAwL48p8lJ9-qkZBHk4-1" target="RlAwL48p8lJ9-qkZBHk4-33">
          <mxGeometry relative="1" as="geometry">
            <mxPoint x="260" y="220" as="sourcePoint" />
            <mxPoint x="420" y="220" as="targetPoint" />
          </mxGeometry>
        </mxCell>
        <mxCell id="RlAwL48p8lJ9-qkZBHk4-39" value="M" style="text;strokeColor=none;align=center;fillColor=none;html=1;verticalAlign=middle;whiteSpace=wrap;rounded=0;" vertex="1" parent="1">
          <mxGeometry x="190" y="75" width="30" height="20" as="geometry" />
        </mxCell>
        <mxCell id="RlAwL48p8lJ9-qkZBHk4-40" value="has" style="shape=rhombus;perimeter=rhombusPerimeter;whiteSpace=wrap;html=1;align=center;" vertex="1" parent="1">
          <mxGeometry x="280" y="380" width="90" height="50" as="geometry" />
        </mxCell>
        <mxCell id="RlAwL48p8lJ9-qkZBHk4-41" value="" style="endArrow=none;html=1;rounded=0;exitX=1;exitY=0.5;exitDx=0;exitDy=0;entryX=0;entryY=0.5;entryDx=0;entryDy=0;" edge="1" parent="1" source="RlAwL48p8lJ9-qkZBHk4-19" target="RlAwL48p8lJ9-qkZBHk4-40">
          <mxGeometry relative="1" as="geometry">
            <mxPoint x="260" y="300" as="sourcePoint" />
            <mxPoint x="420" y="300" as="targetPoint" />
          </mxGeometry>
        </mxCell>
        <mxCell id="RlAwL48p8lJ9-qkZBHk4-42" value="" style="endArrow=none;html=1;rounded=0;exitX=1;exitY=0.5;exitDx=0;exitDy=0;entryX=0;entryY=0;entryDx=0;entryDy=0;" edge="1" parent="1" source="RlAwL48p8lJ9-qkZBHk4-40" target="RlAwL48p8lJ9-qkZBHk4-27">
          <mxGeometry relative="1" as="geometry">
            <mxPoint x="371" y="402" as="sourcePoint" />
            <mxPoint x="470" y="385" as="targetPoint" />
          </mxGeometry>
        </mxCell>
        <mxCell id="RlAwL48p8lJ9-qkZBHk4-43" value="M" style="text;strokeColor=none;align=center;fillColor=none;html=1;verticalAlign=middle;whiteSpace=wrap;rounded=0;" vertex="1" parent="1">
          <mxGeometry x="421" y="410" width="30" height="20" as="geometry" />
        </mxCell>
        <mxCell id="RlAwL48p8lJ9-qkZBHk4-44" value="1" style="text;strokeColor=none;align=center;fillColor=none;html=1;verticalAlign=middle;whiteSpace=wrap;rounded=0;" vertex="1" parent="1">
          <mxGeometry x="190" y="390" width="30" height="20" as="geometry" />
        </mxCell>
        <mxCell id="RlAwL48p8lJ9-qkZBHk4-45" value="" style="endArrow=none;html=1;rounded=0;exitX=1;exitY=0.75;exitDx=0;exitDy=0;entryX=0.133;entryY=0.6;entryDx=0;entryDy=0;entryPerimeter=0;" edge="1" parent="1" source="RlAwL48p8lJ9-qkZBHk4-19" target="RlAwL48p8lJ9-qkZBHk4-40">
          <mxGeometry relative="1" as="geometry">
            <mxPoint x="191" y="432" as="sourcePoint" />
            <mxPoint x="290" y="415" as="targetPoint" />
          </mxGeometry>
        </mxCell>
        <mxCell id="RlAwL48p8lJ9-qkZBHk4-46" value="Performed" style="shape=rhombus;perimeter=rhombusPerimeter;whiteSpace=wrap;html=1;align=center;" vertex="1" parent="1">
          <mxGeometry x="331" y="230" width="90" height="50" as="geometry" />
        </mxCell>
        <mxCell id="RlAwL48p8lJ9-qkZBHk4-47" value="" style="endArrow=none;html=1;rounded=0;exitX=1;exitY=1;exitDx=0;exitDy=0;entryX=0.5;entryY=0;entryDx=0;entryDy=0;" edge="1" parent="1" source="RlAwL48p8lJ9-qkZBHk4-1" target="RlAwL48p8lJ9-qkZBHk4-46">
          <mxGeometry relative="1" as="geometry">
            <mxPoint x="260" y="210" as="sourcePoint" />
            <mxPoint x="420" y="210" as="targetPoint" />
          </mxGeometry>
        </mxCell>
        <mxCell id="RlAwL48p8lJ9-qkZBHk4-48" value="" style="endArrow=none;html=1;rounded=0;entryX=0.5;entryY=0;entryDx=0;entryDy=0;exitX=1;exitY=1;exitDx=0;exitDy=0;" edge="1" parent="1" source="RlAwL48p8lJ9-qkZBHk4-46" target="RlAwL48p8lJ9-qkZBHk4-27">
          <mxGeometry relative="1" as="geometry">
            <mxPoint x="260" y="210" as="sourcePoint" />
            <mxPoint x="420" y="210" as="targetPoint" />
          </mxGeometry>
        </mxCell>
        <mxCell id="RlAwL48p8lJ9-qkZBHk4-49" value="M" style="text;strokeColor=none;align=center;fillColor=none;html=1;verticalAlign=middle;whiteSpace=wrap;rounded=0;" vertex="1" parent="1">
          <mxGeometry x="546" y="352" width="30" height="20" as="geometry" />
        </mxCell>
        <mxCell id="RlAwL48p8lJ9-qkZBHk4-50" value="M" style="text;strokeColor=none;align=center;fillColor=none;html=1;verticalAlign=middle;whiteSpace=wrap;rounded=0;" vertex="1" parent="1">
          <mxGeometry x="210" y="120" width="30" height="20" as="geometry" />
        </mxCell>
        <mxCell id="RlAwL48p8lJ9-qkZBHk4-51" value="" style="endArrow=none;html=1;rounded=0;entryX=0.39;entryY=0;entryDx=0;entryDy=0;entryPerimeter=0;exitX=0.667;exitY=0.84;exitDx=0;exitDy=0;exitPerimeter=0;" edge="1" parent="1" source="RlAwL48p8lJ9-qkZBHk4-46" target="RlAwL48p8lJ9-qkZBHk4-27">
          <mxGeometry relative="1" as="geometry">
            <mxPoint x="260" y="210" as="sourcePoint" />
            <mxPoint x="420" y="210" as="targetPoint" />
          </mxGeometry>
        </mxCell>
        <mxCell id="RlAwL48p8lJ9-qkZBHk4-52" value="Has" style="shape=rhombus;perimeter=rhombusPerimeter;whiteSpace=wrap;html=1;align=center;" vertex="1" parent="1">
          <mxGeometry x="85" y="240" width="90" height="60" as="geometry" />
        </mxCell>
        <mxCell id="RlAwL48p8lJ9-qkZBHk4-53" value="" style="endArrow=none;html=1;rounded=0;exitX=0.5;exitY=0;exitDx=0;exitDy=0;entryX=0.5;entryY=1;entryDx=0;entryDy=0;" edge="1" parent="1" source="RlAwL48p8lJ9-qkZBHk4-52" target="RlAwL48p8lJ9-qkZBHk4-1">
          <mxGeometry relative="1" as="geometry">
            <mxPoint x="260" y="220" as="sourcePoint" />
            <mxPoint x="420" y="220" as="targetPoint" />
          </mxGeometry>
        </mxCell>
        <mxCell id="RlAwL48p8lJ9-qkZBHk4-54" value="1" style="text;strokeColor=none;align=center;fillColor=none;html=1;verticalAlign=middle;whiteSpace=wrap;rounded=0;" vertex="1" parent="1">
          <mxGeometry x="90" y="150" width="30" height="20" as="geometry" />
        </mxCell>
        <mxCell id="RlAwL48p8lJ9-qkZBHk4-55" value="" style="endArrow=none;html=1;rounded=0;exitX=0.5;exitY=1;exitDx=0;exitDy=0;entryX=0.5;entryY=0;entryDx=0;entryDy=0;" edge="1" parent="1" source="RlAwL48p8lJ9-qkZBHk4-52" target="RlAwL48p8lJ9-qkZBHk4-19">
          <mxGeometry relative="1" as="geometry">
            <mxPoint x="260" y="220" as="sourcePoint" />
            <mxPoint x="420" y="220" as="targetPoint" />
          </mxGeometry>
        </mxCell>
        <mxCell id="RlAwL48p8lJ9-qkZBHk4-56" value="M" style="text;strokeColor=none;align=center;fillColor=none;html=1;verticalAlign=middle;whiteSpace=wrap;rounded=0;" vertex="1" parent="1">
          <mxGeometry x="140" y="360" width="30" height="20" as="geometry" />
        </mxCell>
        <mxCell id="RlAwL48p8lJ9-qkZBHk4-57" value="" style="endArrow=none;html=1;rounded=0;exitX=0.43;exitY=0;exitDx=0;exitDy=0;entryX=0.422;entryY=0.883;entryDx=0;entryDy=0;exitPerimeter=0;entryPerimeter=0;" edge="1" parent="1" source="RlAwL48p8lJ9-qkZBHk4-19" target="RlAwL48p8lJ9-qkZBHk4-52">
          <mxGeometry relative="1" as="geometry">
            <mxPoint x="140" y="240" as="sourcePoint" />
            <mxPoint x="140" y="120" as="targetPoint" />
          </mxGeometry>
        </mxCell>
      </root>
    </mxGraphModel>
  </diagram>
</mxfile>
